<svg width="20" height="18" viewBox="0 0 20 18" fill="none" xmlns="http://www.w3.org/2000/svg">
<path fill-rule="evenodd" clip-rule="evenodd" d="M0.209531 15.1367L8.31109 1.06268C9.01122 -0.354227 10.983 -0.354227 11.6831 1.06268L19.7847 15.1367C20.442 16.4503 19.5132 18 18.0987 18L1.89555 18C0.481 18 -0.433448 16.4355 0.209531 15.1367ZM10 6.16998C10.4142 6.16998 10.75 6.50577 10.75 6.91998V10.58C10.75 10.9942 10.4142 11.33 10 11.33C9.58579 11.33 9.25 10.9942 9.25 10.58V6.91998C9.25 6.50577 9.58579 6.16998 10 6.16998ZM10 14.08C10.4142 14.08 10.75 13.7442 10.75 13.33C10.75 12.9157 10.4142 12.58 10 12.58C9.58579 12.58 9.25 12.9157 9.25 13.33C9.25 13.7442 9.58579 14.08 10 14.08Z" fill="#D8372C"/>
</svg>
