<svg width="20" height="20" viewBox="0 0 20 20" fill="none" xmlns="http://www.w3.org/2000/svg">
<path d="M19.5539 6.168L10.5539 0.168C10.3898 0.0586028 10.1971 0.000153037 9.99986 0C9.80267 0.000153037 9.60993 0.0586028 9.44586 0.168L0.445865 6.168C0.336512 6.24079 0.242574 6.33442 0.169417 6.44353C0.0962597 6.55264 0.0453175 6.6751 0.0195009 6.8039C-0.00631569 6.93271 -0.00650072 7.06534 0.0189561 7.19421C0.044413 7.32309 0.0950128 7.44569 0.167865 7.555C0.262214 7.68894 0.386596 7.79895 0.531066 7.87622C0.675535 7.95349 0.836081 7.99588 0.999865 8H1.99986V19C1.99986 19.2652 2.10522 19.5196 2.29276 19.7071C2.48029 19.8946 2.73465 20 2.99987 20H16.9999C17.1335 20.0002 17.2659 19.9733 17.3889 19.921C17.4951 19.85 17.6011 19.7787 17.7069 19.707C17.8944 19.5195 17.9998 19.2652 17.9999 19V8H18.9999C19.2145 8.00005 19.4235 7.93104 19.5958 7.80317C19.7682 7.67529 19.8949 7.49535 19.9571 7.28994C20.0194 7.08452 20.0139 6.86453 19.9414 6.66249C19.869 6.46045 19.7334 6.28708 19.5549 6.168H19.5539ZM7.99987 18V11H11.9999V18H7.99987ZM13.9999 18V10C13.9999 9.73478 13.8945 9.48043 13.707 9.29289C13.5194 9.10536 13.2651 9 12.9999 9H6.99987C6.73465 9 6.48029 9.10536 6.29276 9.29289C6.10522 9.48043 5.99987 9.73478 5.99987 10V18H3.99987V6.2L9.99986 2.2L15.9999 6.2V18H13.9999Z" fill="#FCFCFC"/>
</svg>
