<svg width="23" height="18" viewBox="0 0 23 18" fill="none" xmlns="http://www.w3.org/2000/svg">
<path d="M21.5 0H1.5C1.23478 0 0.98043 0.105357 0.792893 0.292893C0.605357 0.48043 0.5 0.734784 0.5 1V17C0.5 17.2652 0.605357 17.5196 0.792893 17.7071C0.98043 17.8946 1.23478 18 1.5 18H21.5C21.7652 18 22.0196 17.8946 22.2071 17.7071C22.3946 17.5196 22.5 17.2652 22.5 17V1C22.5 0.734784 22.3946 0.48043 22.2071 0.292893C22.0196 0.105357 21.7652 0 21.5 0ZM20.5 16H2.5V2H20.5V16ZM3.632 4.5C3.6975 4.38585 3.78488 4.28574 3.88915 4.20543C3.99342 4.12512 4.11251 4.06618 4.2396 4.03199C4.36669 3.9978 4.49928 3.98904 4.62977 4.0062C4.76026 4.02336 4.88607 4.06611 5 4.132L11.5 7.848L18 4.132C18.2302 3.99939 18.5037 3.96366 18.7602 4.03268C19.0168 4.10169 19.2354 4.26979 19.368 4.5C19.5006 4.73021 19.5363 5.00367 19.4673 5.26022C19.3983 5.51677 19.2302 5.73539 19 5.868L12 9.868C11.8489 9.95429 11.678 9.99968 11.504 9.99968C11.33 9.99968 11.1591 9.95429 11.008 9.868L4.008 5.868C3.89318 5.80317 3.79231 5.71628 3.7112 5.61231C3.63009 5.50835 3.57034 5.38937 3.53539 5.26223C3.50045 5.13508 3.49099 5.00228 3.50757 4.87146C3.52415 4.74065 3.56644 4.61441 3.632 4.5ZM8.207 10.289C8.39447 10.4765 8.49979 10.7308 8.49979 10.996C8.49979 11.2612 8.39447 11.5155 8.207 11.703L6.207 13.703C6.0184 13.8852 5.7658 13.986 5.5036 13.9837C5.2414 13.9814 4.99059 13.8762 4.80518 13.6908C4.61977 13.5054 4.5146 13.2546 4.51233 12.9924C4.51005 12.7302 4.61084 12.4776 4.793 12.289L6.793 10.289C6.98106 10.1021 7.23566 9.99746 7.50083 9.99821C7.76599 9.99896 8.02 10.105 8.207 10.293V10.289ZM18.207 12.289C18.3025 12.3812 18.3787 12.4916 18.4311 12.6136C18.4835 12.7356 18.5111 12.8668 18.5123 12.9996C18.5134 13.1324 18.4881 13.2641 18.4378 13.387C18.3875 13.5098 18.3133 13.6215 18.2194 13.7154C18.1255 13.8093 18.0138 13.8835 17.891 13.9338C17.7681 13.9841 17.6364 14.0094 17.5036 14.0083C17.3708 14.0071 17.2396 13.9795 17.1176 13.9271C16.9956 13.8747 16.8852 13.7985 16.793 13.703L14.793 11.703C14.6108 11.5144 14.51 11.2618 14.5123 10.9996C14.5146 10.7374 14.6198 10.4866 14.8052 10.3012C14.9906 10.1158 15.2414 10.0106 15.5036 10.0083C15.7658 10.006 16.0184 10.1068 16.207 10.289L18.207 12.289Z" fill="#171717"/>
</svg>
